<svg xmlns="http://www.w3.org/2000/svg" xmlns:xlink="http://www.w3.org/1999/xlink" version="1.1" x="0px" y="0px" width="100px" height="100px" viewBox="0 0 100 100" enable-background="new 0 0 100 100" xml:space="preserve">
<g id="Captions" display="none">
</g>
<g id="Your_Icon">
	<circle cx="67.004" cy="43.299" r="5.5"/>
	<circle cx="83.503" cy="60.896" r="5.5"/>
	<path d="M93.401,29H6.599C2.955,29,0,31.955,0,35.599v34.096c0,3.645,2.955,6.6,6.599,6.6h17.599c2.43,0,6.013-1.131,8.004-2.523   l7.394-5.176h20.811l7.394,5.176c1.991,1.393,5.574,2.523,8.004,2.523h17.599c3.644,0,6.599-2.955,6.599-6.6V35.599   C100,31.955,97.045,29,93.401,29z M36.296,54.297c0,1.215-0.985,2.199-2.2,2.199h-7.698v7.699c0,1.215-0.985,2.201-2.2,2.201   h-4.399c-1.215,0-2.2-0.986-2.2-2.201v-7.699H9.898c-1.215,0-2.199-0.984-2.199-2.199v-4.4c0-1.215,0.984-2.2,2.199-2.2h7.699   v-7.699c0-1.214,0.985-2.2,2.2-2.2h4.399c1.215,0,2.2,0.985,2.2,2.2v7.699h7.698c1.215,0,2.2,0.985,2.2,2.2V54.297z M67.004,52.098   c-4.852,0-8.799-3.948-8.799-8.799s3.947-8.799,8.799-8.799s8.799,3.947,8.799,8.799S71.855,52.098,67.004,52.098z M83.503,69.695   c-4.853,0-8.8-3.947-8.8-8.799s3.947-8.799,8.8-8.799c4.851,0,8.798,3.947,8.798,8.799S88.354,69.695,83.503,69.695z"/>
</g>
</svg>