<svg width="241" height="42" viewBox="0 0 241 42" fill="none" xmlns="http://www.w3.org/2000/svg">
<g clip-path="url(#clip0_11953_875)">
<path fill-rule="evenodd" clip-rule="evenodd" d="M21.595 3.69133C17.4766 3.69572 13.4863 5.10547 10.2999 7.68184C7.11344 10.2582 4.92669 13.8428 4.10994 17.8287C3.29319 21.8146 3.89665 25.9567 5.81813 29.5536C7.73961 33.1505 10.861 35.9811 14.6537 37.5661C14.8882 37.6547 15.1022 37.7891 15.283 37.9612C15.4638 38.1333 15.6076 38.3396 15.706 38.5677C15.8043 38.7959 15.8551 39.0412 15.8553 39.2892C15.8556 39.5371 15.8053 39.7826 15.7074 40.0109C15.6095 40.2393 15.4661 40.4458 15.2856 40.6182C15.1052 40.7907 14.8914 40.9255 14.6571 41.0146C14.4228 41.1037 14.1727 41.1453 13.9217 41.1369C13.6707 41.1286 13.424 41.0704 13.1963 40.9659C8.60433 39.052 4.82406 35.6287 2.49661 31.2766C0.169165 26.9245 -0.562188 21.9114 0.426585 17.0875C1.41536 12.2637 4.06339 7.926 7.9216 4.81011C11.7798 1.69422 16.6107 -0.00806808 21.595 -0.00806808C26.5793 -0.00806808 31.4102 1.69422 35.2684 4.81011C39.1266 7.926 41.7747 12.2637 42.7634 17.0875C43.7522 21.9114 43.0209 26.9245 40.6934 31.2766C38.366 35.6287 34.5857 39.052 29.9937 40.9659C29.5371 41.1564 29.0226 41.16 28.5633 40.9759C28.104 40.7918 27.7376 40.4351 27.5447 39.9843C27.3518 39.5334 27.3481 39.0254 27.5346 38.5719C27.721 38.1184 28.0822 37.7566 28.5388 37.5661C32.3317 35.981 35.4532 33.1502 37.3747 29.553C39.2961 25.9559 39.8994 21.8135 39.0823 17.8275C38.2653 13.8415 36.0781 10.2568 32.8912 7.68067C29.7043 5.10449 25.7136 3.69515 21.595 3.69133Z" fill="url(#paint0_linear_11953_875)"/>
<path fill-rule="evenodd" clip-rule="evenodd" d="M9.86355 14.2348C10.3152 14.0322 10.8298 14.0151 11.2942 14.1871C11.7586 14.3591 12.1348 14.7063 12.3401 15.1521L16.1162 23.3538L19.8949 15.1497C20.0431 14.8267 20.2824 14.5528 20.5841 14.3607C20.8859 14.1686 21.2374 14.0664 21.5964 14.0664C21.9555 14.0664 22.3069 14.1686 22.6087 14.3607C22.9104 14.5528 23.1497 14.8267 23.2979 15.1497L27.0741 23.3538L30.8527 15.1497C30.9543 14.9284 31.0991 14.729 31.2787 14.563C31.4584 14.3969 31.6694 14.2674 31.8997 14.1819C32.13 14.0964 32.3751 14.0565 32.6211 14.0645C32.867 14.0725 33.1089 14.1283 33.333 14.2286C33.5571 14.329 33.759 14.4719 33.9272 14.6493C34.0953 14.8267 34.2265 15.035 34.3131 15.2624C34.3997 15.4899 34.4401 15.7319 34.432 15.9747C34.4239 16.2176 34.3674 16.4565 34.2658 16.6777L28.7768 28.5759C28.6279 28.898 28.3883 29.1711 28.0866 29.3625C27.785 29.5539 27.4339 29.6557 27.0753 29.6557C26.7167 29.6557 26.3657 29.5539 26.064 29.3625C25.7624 29.1711 25.5228 28.898 25.3738 28.5759L21.5952 20.3743L17.819 28.5759C17.6696 28.8979 17.4297 29.1707 17.1279 29.362C16.826 29.5533 16.4749 29.6549 16.1162 29.6549C15.7576 29.6549 15.4065 29.5533 15.1046 29.362C14.8028 29.1707 14.5629 28.8979 14.4135 28.5759L8.93454 16.6777C8.73086 16.232 8.71425 15.7247 8.88835 15.2669C9.06245 14.8091 9.41308 14.438 9.86355 14.2348Z" fill="#010101"/>
<path d="M62.344 31.4293C59.7531 31.4293 57.694 30.7147 56.1665 29.2856C54.639 27.8564 53.8752 25.7736 53.8752 23.0373V18.1564C53.8752 15.4398 54.639 13.3669 56.1665 11.9378C57.694 10.5086 59.7531 9.78411 62.344 9.76433C64.9366 9.76433 66.9958 10.4888 68.5216 11.9378C70.0474 13.3867 70.8212 15.4596 70.8429 18.1564V23.0373C70.8429 25.7555 70.0691 27.8383 68.5216 29.2856C66.9741 30.7329 64.9149 31.4475 62.344 31.4293ZM62.344 28.5413C64.0134 28.5413 65.2997 28.0658 66.2028 27.1146C67.106 26.1635 67.5575 24.8448 67.5575 23.1584V18.0377C67.5575 16.3711 67.106 15.0615 66.2028 14.1087C65.2997 13.1559 64.0134 12.6705 62.344 12.6523C60.7164 12.6523 59.441 13.1378 58.5178 14.1087C57.5946 15.0796 57.1322 16.3893 57.1305 18.0377V23.156C57.1305 24.8225 57.593 26.1412 58.5178 27.1122C59.4426 28.0831 60.7181 28.5594 62.344 28.5413Z" fill="#010101"/>
<path d="M72.979 36.963V16.3415H76.0215V18.4556H76.5047C76.9366 17.7524 77.5238 17.1548 78.2225 16.7074C79.0055 16.1931 80.1206 15.936 81.568 15.936C82.7816 15.9222 83.9754 16.24 85.0175 16.8545C86.0596 17.4689 86.9092 18.3559 87.4726 19.4174C88.117 20.5284 88.4392 21.8768 88.4392 23.4626V23.9101C88.4797 25.3254 88.1576 26.7279 87.5027 27.9875C86.9242 29.0531 86.0573 29.9391 84.9986 30.5466C83.9541 31.1404 82.7682 31.4486 81.563 31.4392C80.7343 31.4604 79.9081 31.3391 79.1215 31.0807C78.5355 30.888 77.993 30.5848 77.5239 30.1881C77.1504 29.8468 76.826 29.4566 76.5598 29.0284H76.0841V36.9729L72.979 36.963ZM80.664 28.7515C81.2806 28.7739 81.8952 28.6719 82.4705 28.4517C83.0457 28.2315 83.5694 27.8977 84.0095 27.4707C84.8742 26.6168 85.3057 25.397 85.3041 23.8112V23.5417C85.3041 21.9774 84.8617 20.7674 83.9769 19.9119C83.5422 19.487 83.024 19.1544 82.4543 18.9346C81.8846 18.7147 81.2753 18.6123 80.664 18.6336C80.052 18.617 79.443 18.7226 78.8733 18.9439C78.3036 19.1653 77.785 19.4979 77.3486 19.9218C76.4839 20.774 76.0515 21.984 76.0515 23.5516V23.8211C76.0515 25.4085 76.4839 26.6283 77.3486 27.4806C77.7866 27.9013 78.3058 28.2306 78.8754 28.4489C79.445 28.6673 80.0533 28.7702 80.664 28.7515Z" fill="#010101"/>
<path d="M97.2857 31.4293C95.912 31.46 94.5533 31.1425 93.3393 30.507C92.2249 29.8828 91.3071 28.9663 90.6875 27.8589C90.0462 26.6291 89.7252 25.2609 89.7534 23.878V23.512C89.7192 22.1269 90.0406 20.7557 90.6875 19.5262C91.2723 18.4135 92.173 17.4932 93.2792 16.878C94.4667 16.2273 95.8077 15.8988 97.1655 15.9261C98.4769 15.8959 99.7711 16.2254 100.904 16.878C101.981 17.4841 102.86 18.3825 103.436 19.4668C104.06 20.6717 104.37 22.0108 104.34 23.3637V24.5258H92.9161C92.9562 25.8132 93.3885 26.8443 94.2132 27.619C95.0723 28.3782 96.1934 28.7835 97.3458 28.7515C98.5144 28.7515 99.3891 28.4935 99.9701 27.9776C100.553 27.4847 101.025 26.8765 101.355 26.1923L103.917 27.5003C103.581 28.1341 103.166 28.7238 102.682 29.2559C102.107 29.9111 101.398 30.4386 100.601 30.8038C99.7364 31.2192 98.6312 31.4277 97.2857 31.4293ZM92.9461 22.1744H101.175C101.094 21.065 100.693 20.202 99.9701 19.5855C99.2472 18.969 98.3024 18.6517 97.1355 18.6336C96.0951 18.5911 95.0756 18.9302 94.2733 19.5855C93.5204 20.2556 93.0472 21.1785 92.9461 22.1744Z" fill="#010101"/>
<path d="M106.268 31.0115V16.3415H109.311V18.5446H109.794C110.142 17.8712 110.659 17.2974 111.296 16.878C112.017 16.3604 113.092 16.1024 114.519 16.1041C115.563 16.0822 116.594 16.3385 117.504 16.8459C118.387 17.3392 119.108 18.072 119.582 18.9575C120.11 19.9573 120.369 21.0745 120.333 22.2015V31.009H117.228V22.4414C117.228 21.1738 116.907 20.2416 116.264 19.6449C115.622 19.0481 114.74 18.7407 113.62 18.7226C112.336 18.7226 111.302 19.1347 110.517 19.9589C109.733 20.7831 109.351 21.9938 109.371 23.5912V31.009L106.268 31.0115Z" fill="#010101"/>
<path d="M124.205 31.0115L121.102 10.1822H124.357L126.889 28.8405H127.372L130.628 10.1822H136.322L139.577 28.8405H140.06L142.564 10.1822H145.82L142.717 31.0115H137.013L133.698 12.0861H133.217L129.921 31.0115H124.205Z" fill="#010101"/>
<path d="M153.828 31.4293C152.454 31.46 151.094 31.1425 149.879 30.507C148.765 29.8821 147.848 28.9657 147.227 27.8589C146.587 26.6287 146.266 25.2608 146.293 23.878V23.512C146.26 22.127 146.582 20.7561 147.227 19.5262C147.812 18.4135 148.713 17.4932 149.819 16.878C151.008 16.2269 152.351 15.8984 153.71 15.9261C155.021 15.8958 156.314 16.2254 157.446 16.878C158.522 17.4845 159.398 18.3831 159.971 19.4668C160.596 20.6711 160.907 22.0107 160.875 23.3637V24.5258H149.453C149.494 25.8132 149.925 26.8443 150.748 27.619C151.608 28.3788 152.73 28.7841 153.883 28.7515C155.052 28.7515 155.926 28.4935 156.505 27.9776C157.089 27.4848 157.561 26.8766 157.892 26.1923L160.471 27.5003C160.135 28.1341 159.719 28.7238 159.234 29.2559C158.661 29.9115 157.952 30.4392 157.156 30.8038C156.285 31.2192 155.175 31.4277 153.828 31.4293ZM149.489 22.1744H157.717C157.633 21.065 157.231 20.202 156.51 19.5855C155.789 18.969 154.845 18.6517 153.678 18.6336C152.637 18.5912 151.616 18.9302 150.813 19.5855C150.062 20.2565 149.59 21.1791 149.489 22.1744Z" fill="#010101"/>
<path d="M171.397 31.4293C169.949 31.4293 168.834 31.1713 168.051 30.6554C167.358 30.2083 166.772 29.6177 166.333 28.9246H165.853V31.0065H162.808V10.1822H165.913V18.3418H166.393C166.656 17.917 166.981 17.5329 167.358 17.2019C167.821 16.7903 168.365 16.4764 168.955 16.2797C169.742 16.0234 170.568 15.9029 171.397 15.9236C172.602 15.9125 173.788 16.2207 174.832 16.8162C175.897 17.4293 176.765 18.3267 177.336 19.405C177.988 20.6542 178.309 22.0457 178.27 23.4502V23.8978C178.311 25.3163 177.979 26.7212 177.306 27.9751C176.735 29.0293 175.883 29.9092 174.842 30.5194C173.8 31.1296 172.61 31.4468 171.399 31.4367L171.397 31.4293ZM170.488 28.7515C171.099 28.7725 171.709 28.6697 172.279 28.4494C172.85 28.2292 173.368 27.8961 173.803 27.4707C174.686 26.6168 175.129 25.397 175.13 23.8112V23.5417C175.13 21.9774 174.698 20.7674 173.833 19.9119C172.968 19.0564 171.853 18.6303 170.488 18.6336C169.877 18.618 169.268 18.724 168.7 18.9453C168.131 19.1666 167.613 19.4987 167.177 19.9218C166.314 20.774 165.883 21.984 165.883 23.5516V23.8211C165.883 25.4085 166.314 26.6283 167.177 27.4806C167.615 27.9004 168.133 28.2293 168.702 28.4476C169.271 28.6659 169.878 28.7692 170.488 28.7515Z" fill="#010101"/>
<path d="M180.306 31.0115V16.3415H183.411V31.0115H180.306ZM181.874 14.3485C181.307 14.361 180.757 14.1584 180.336 13.7823C180.135 13.5823 179.978 13.3437 179.874 13.0813C179.771 12.8189 179.722 12.5382 179.733 12.2567C179.723 11.9816 179.772 11.7075 179.876 11.4521C179.98 11.1966 180.137 10.9654 180.336 10.7732C180.54 10.5791 180.781 10.4268 181.045 10.325C181.309 10.2232 181.591 10.1738 181.874 10.1797C182.157 10.1703 182.44 10.218 182.704 10.3201C182.969 10.4221 183.209 10.5763 183.411 10.7732C183.61 10.9656 183.767 11.1969 183.87 11.4524C183.974 11.7078 184.022 11.9818 184.012 12.2567C184.022 12.5369 183.974 12.816 183.871 13.0771C183.767 13.3382 183.611 13.5756 183.411 13.7749C182.996 14.1598 182.443 14.3661 181.874 14.3485Z" fill="#010101"/>
<path d="M186.208 31.0115V16.3415H189.253V18.5446H189.734C190.083 17.8721 190.6 17.2986 191.236 16.878C191.959 16.3604 193.034 16.1024 194.461 16.1041C195.505 16.0826 196.535 16.3388 197.444 16.8459C198.331 17.339 199.056 18.0726 199.535 18.96C200.062 19.9602 200.32 21.0771 200.286 22.204V31.0115H197.181V22.4414C197.181 21.1738 196.86 20.2416 196.217 19.6449C195.574 19.0482 194.69 18.7407 193.565 18.7226C192.278 18.7226 191.243 19.1347 190.46 19.9589C189.677 20.7831 189.296 21.9939 189.316 23.5912V31.009L186.208 31.0115Z" fill="#010101"/>
<path d="M207.548 31.4293C206.566 31.4458 205.591 31.2632 204.683 30.8928C203.887 30.5564 203.199 30.0108 202.695 29.3152C202.197 28.5652 201.944 27.6822 201.971 26.7858C201.935 25.8975 202.189 25.0213 202.695 24.286C203.21 23.6032 203.909 23.0779 204.713 22.7703C205.648 22.4241 206.64 22.2563 207.638 22.2757H212.145V21.3114C212.163 20.9343 212.102 20.5576 211.968 20.2043C211.833 19.851 211.627 19.5286 211.361 19.2567C210.841 18.7424 210.037 18.4852 208.95 18.4852C207.863 18.4852 207.05 18.7325 206.511 19.227C205.946 19.7392 205.561 20.4155 205.412 21.1581L202.52 20.2358C202.754 19.4539 203.143 18.7254 203.664 18.0921C204.242 17.413 204.971 16.8748 205.795 16.5195C206.805 16.0994 207.894 15.8971 208.99 15.9261C210.918 15.9261 212.435 16.4115 213.54 17.3824C214.645 18.3533 215.198 19.7322 215.198 21.5191V27.5597C215.198 28.1548 215.479 28.4523 216.042 28.4523H217.294V31.0115H214.972C214.354 31.038 213.746 30.849 213.254 30.4774C213.037 30.3015 212.864 30.0782 212.75 29.825C212.635 29.5718 212.581 29.2957 212.593 29.0185V28.9295H212.14C211.932 29.2977 211.69 29.6461 211.417 29.9705C211.03 30.4174 210.546 30.7731 210.002 31.0115C209.222 31.3173 208.386 31.4596 207.548 31.4293ZM207.998 28.8998C209.245 28.8998 210.247 28.5529 211.003 27.8589C211.76 27.1649 212.141 26.1923 212.148 24.9412V24.6445H207.823C207.12 24.6107 206.424 24.7976 205.835 25.1786C205.588 25.346 205.388 25.5738 205.257 25.8399C205.125 26.1059 205.065 26.4012 205.084 26.6968C205.073 27.0073 205.138 27.3159 205.275 27.5959C205.411 27.8759 205.615 28.1189 205.867 28.3039C206.386 28.6996 207.099 28.8998 208.003 28.8998H207.998Z" fill="#010101"/>
<path d="M219.129 31.0115V16.3415H222.174V18.0723H222.655C222.858 17.5026 223.265 17.0259 223.8 16.7321C224.418 16.4168 225.107 16.2636 225.803 16.2871H227.581V19.049H225.683C224.782 19.0135 223.901 19.3106 223.211 19.8822C222.56 20.4196 222.234 21.257 222.234 22.3944V31.0238L219.129 31.0115Z" fill="#010101"/>
<path d="M234.739 31.4293C232.851 31.4293 231.284 31.0123 230.037 30.1782C228.79 29.3441 228.027 28.0847 227.748 26.4L230.64 25.7151C230.752 26.4144 231.031 27.0773 231.454 27.6487C231.819 28.1129 232.311 28.4639 232.871 28.66C233.473 28.8631 234.104 28.9642 234.739 28.9592C235.723 28.9592 236.474 28.7704 236.993 28.393C237.243 28.2384 237.449 28.0232 237.592 27.7679C237.734 27.5126 237.808 27.2256 237.807 26.9341C237.822 26.668 237.759 26.4032 237.626 26.1713C237.492 25.9395 237.295 25.7502 237.056 25.6261C236.354 25.2842 235.602 25.0531 234.827 24.9412L233.803 24.7632C232.859 24.6039 231.936 24.3444 231.048 23.9892C230.285 23.6957 229.61 23.2139 229.088 22.5898C228.585 21.9324 228.329 21.1231 228.364 20.3001C228.364 18.9105 228.887 17.839 229.932 17.0857C230.977 16.3324 232.363 15.9459 234.091 15.9261C235.76 15.9261 237.127 16.3027 238.19 17.0561C239.252 17.7583 240.006 18.8317 240.298 20.0603L237.421 20.8639C237.241 19.9721 236.86 19.3473 236.277 18.9896C235.625 18.5945 234.87 18.3975 234.106 18.4234C233.41 18.3865 232.719 18.5525 232.118 18.9006C231.899 19.039 231.718 19.229 231.591 19.4536C231.465 19.6781 231.398 19.9302 231.395 20.187C231.392 20.4438 231.453 20.6974 231.574 20.9247C231.695 21.1521 231.872 21.3462 232.088 21.4894C232.689 21.8072 233.341 22.0189 234.016 22.115L235.07 22.293C236.065 22.4533 237.044 22.7015 237.995 23.0348C238.799 23.2993 239.517 23.7724 240.073 24.4046C240.597 24.9981 240.859 25.791 240.857 26.7833C240.857 28.252 240.304 29.3927 239.199 30.2054C238.094 31.018 236.607 31.426 234.739 31.4293Z" fill="#010101"/>
</g>
<defs>
<linearGradient id="paint0_linear_11953_875" x1="21.595" y1="46.9965" x2="21.595" y2="-24.2343" gradientUnits="userSpaceOnUse">
<stop stop-color="#672FEA"/>
<stop offset="0.793296" stop-color="#FF01A2"/>
</linearGradient>
<clipPath id="clip0_11953_875">
<rect width="240.857" height="41.1219" fill="white"/>
</clipPath>
</defs>
</svg>
